<svg xmlns="http://www.w3.org/2000/svg" width="103" height="43" fill="none"><path fill="#fff" d="M102.472 26.52a1.32 1.32 0 0 0-1.841.269c-.915 1.226-2.635 2.687-3.36 2.285-.877-.49-.226-2.399.716-4.839.917-2.39 1.788-4.645.882-6.381-.435-.835-1.198-1.392-2.27-1.657-2.613-.648-4.998.352-8.363 4.52l-.007.005c-.242.297-.716.044-.605-.322l.456-1.482a1.38 1.38 0 0 0-.537-1.543 1.375 1.375 0 0 0-1.634.052c-.353.277-1.788 1.03-3.042.861a2.17 2.17 0 0 1-1.376-.735v-.006a4 4 0 0 1-.164-.201 1.316 1.316 0 0 0-2.282.312q-.009.022-.018.052c-.251.686-.508 1.518-.783 2.393-1.697 5.46-3.518 10.315-7.103 9.659-.485-.088-.79-.313-1.02-.753-1.198-2.306.558-8.226 1.718-10.738.31-.674.088-1.47-.531-1.897a1.48 1.48 0 0 0-1.9.178c-.683.703-2.303 1.407-3.81 1.38-.993-.02-1.785-.338-2.355-.948-1.224-1.608-3.133-2.469-5.453-2.469a9 9 0 0 0-.69.024 8 8 0 0 0-1.949.388.482.482 0 0 1-.613-.613l3.342-9.448a1.31 1.31 0 0 0-.8-1.675 1.317 1.317 0 0 0-1.678.8l-4.015 11.342-.002.005c-.772 1.614-1.856 2.58-3.136 2.79-1.163.192-2.504-.251-3.506-1.15-1.225-1.605-3.133-2.463-5.45-2.463a9 9 0 0 0-.69.024c-4.272.303-7.29 3.927-8.228 7.869a8.1 8.1 0 0 1-1.357 2.961c-2.145 2.872-4.114 4.176-6.23 4.176-2.32 0-3.716-3.224-4.459-5.558a.988.988 0 0 1 .771-1.278c7.885-1.302 12.916-8.095 12.779-14.249-.116-5.14-3.8-8.46-9.388-8.46C13.614 0 8.217 4.98 5.254 9.162 1.38 14.627 0 20.951 0 25.047c0 4.584 1.601 7.321 4.284 7.321 3.182 0 6.037-3.434 8.723-10.499 1.85-4.858 2.918-9.632 2.962-9.833a1.31 1.31 0 0 0-.999-1.564 1.31 1.31 0 0 0-1.569.998c-1.685 7.587-5.627 18.272-9.116 18.272-.959 0-1.654-1.975-1.654-4.695 0-3.691 1.253-9.404 4.771-14.368 2.604-3.673 7.334-8.053 15.09-8.053 5.981 0 6.717 4.12 6.758 5.894.105 4.701-4.088 11.406-12.237 11.77a1.91 1.91 0 0 0-1.467.783 1.92 1.92 0 0 0-.312 1.633l.041.158c.605 2.303 2.443 9.308 7.513 9.308 2.992 0 5.338-1.697 7.209-3.825a.45.45 0 0 1 .748.125c1.073 2.466 3.358 3.913 6.356 3.913q.321.001.654-.02c3.033-.208 5.67-2.16 7.238-5.36.92-1.882 1.32-3.94 1.201-5.819a.446.446 0 0 1 .52-.464q.492.075.983.076c.327 0 .66-.026.984-.078h.01c.338-.055.61.271.499.598-.488 1.424-.704 2.926-.602 4.359.289 4.134 3.013 6.709 7.013 6.709q.323 0 .654-.021c3.033-.208 5.672-2.16 7.238-5.36.952-1.94 1.347-4.065 1.186-5.99a.442.442 0 0 1 .48-.473q.191.013.388.017a8 8 0 0 0 2.028-.228.44.44 0 0 1 .52.555c-.888 3.04-1.549 6.953-.31 9.334.603 1.158 1.6 1.894 2.882 2.124 1.411.257 2.714.053 3.898-.607a.45.45 0 0 1 .652.522c-1.674 5.413-3.261 8.185-5.792 8.112-2.837-.07-3.13-3.458-3.153-3.851a1.315 1.315 0 0 0-2.627.143c.114 2.144 1.455 6.226 5.713 6.334q.08.002.163.003c3.688 0 5.546-3.186 6.63-5.6 1.464-3.268 2.63-7.884 4.106-13.722.221-.884.45-1.783.686-2.708a.453.453 0 0 1 .594-.312c.312.11.642.19.981.236.53.07 1.05.059 1.543-.005a.446.446 0 0 1 .489.572l-2.636 8.572a1.39 1.39 0 0 0 .815 1.687 1.39 1.39 0 0 0 1.757-.645C89.05 22.35 93.804 18.21 95.964 18.75q.465.116.57.318c.359.688-.43 2.734-1.003 4.225-1.104 2.869-2.478 6.437.456 8.074 3.092 1.728 6.388-2.515 6.753-3.006a1.315 1.315 0 0 0-.268-1.838l.003-.003zm-59.845-.667c-.54 1.103-2.116 3.694-5.052 3.892-1.698.111-4.591-.286-4.866-4.251a9 9 0 0 1-.014-1.013c.006-.128.011-.254.023-.377.336-3.924 3.258-6.746 6.07-6.944 1.568-.11 2.776.257 3.588 1.097.14.14.263.294.377.461q.012.014.02.026c1.14 1.684 1.078 4.608-.146 7.109m18.5 0c-.54 1.103-2.115 3.694-5.052 3.892-1.704.111-4.59-.286-4.868-4.251-.322-4.634 2.945-8.112 6.078-8.334 1.776-.125 3.086.362 3.892 1.453q.049.067.093.131c1.14 1.684 1.082 4.608-.143 7.109" style="fill:#fff;fill-opacity:1"/></svg>