<svg xmlns="http://www.w3.org/2000/svg" width="221" height="33" fill="none"><path fill="#F8B372" d="M49.511 14.37 43.7 19.23l1.77 7.265c.099.395.073.808-.071 1.189a2.06 2.06 0 0 1-.742.95 2.172 2.172 0 0 1-2.35.091l-6.523-3.889-6.527 3.889a2.17 2.17 0 0 1-2.347-.095 2.06 2.06 0 0 1-.74-.948 2 2 0 0 1-.073-1.187l1.777-7.266-5.812-4.858a2.05 2.05 0 0 1-.658-1.004 2 2 0 0 1 .025-1.188 2.06 2.06 0 0 1 .697-.977 2.17 2.17 0 0 1 1.14-.441l7.62-.596 2.94-6.892c.159-.375.43-.697.778-.923a2.16 2.16 0 0 1 1.176-.347c.42 0 .83.121 1.177.347s.62.548.778.923l2.939 6.892 7.62.596c.417.034.815.186 1.142.438.328.252.572.592.701.978.13.386.138.8.026 1.19s-.342.74-.658 1.005zM86.887 14.37l-5.813 4.86 1.771 7.265c.098.395.073.809-.072 1.19a2.06 2.06 0 0 1-.742.949 2.17 2.17 0 0 1-2.35.091l-6.523-3.889-6.527 3.89a2.17 2.17 0 0 1-2.347-.095 2.06 2.06 0 0 1-.74-.949 2 2 0 0 1-.073-1.186l1.777-7.267-5.812-4.858a2.05 2.05 0 0 1-.657-1.004 2 2 0 0 1 .024-1.188 2.06 2.06 0 0 1 .698-.977 2.17 2.17 0 0 1 1.139-.441l7.62-.596 2.94-6.892c.159-.375.43-.697.778-.923a2.16 2.16 0 0 1 1.177-.346c.419 0 .829.12 1.177.346s.619.548.778.923l2.938 6.892 7.62.596c.418.034.815.187 1.143.439.327.252.571.592.7.977.13.386.139.8.026 1.19-.112.39-.341.74-.658 1.005zM124.254 14.37l-5.813 4.86 1.771 7.265c.098.395.073.809-.072 1.19s-.403.71-.741.949a2.169 2.169 0 0 1-2.351.091l-6.523-3.889-6.526 3.89a2.17 2.17 0 0 1-2.348-.095 2.07 2.07 0 0 1-.74-.949 2 2 0 0 1-.073-1.186l1.777-7.267-5.812-4.858a2.05 2.05 0 0 1-.657-1.004 2 2 0 0 1 .024-1.188 2.06 2.06 0 0 1 .698-.977 2.17 2.17 0 0 1 1.139-.441l7.62-.596 2.94-6.892c.159-.375.43-.697.778-.923a2.16 2.16 0 0 1 1.177-.346c.419 0 .829.12 1.177.346s.619.548.778.923l2.938 6.892 7.621.596c.417.034.814.187 1.142.439s.572.592.701.977c.129.386.138.8.025 1.19-.112.39-.341.74-.658 1.005zM161.629 14.37l-5.813 4.86 1.771 7.265c.098.395.073.809-.072 1.19s-.403.71-.741.949a2.169 2.169 0 0 1-2.351.091l-6.523-3.889-6.526 3.89a2.17 2.17 0 0 1-2.348-.095 2.07 2.07 0 0 1-.74-.949 2 2 0 0 1-.073-1.186l1.777-7.267-5.812-4.858a2.05 2.05 0 0 1-.657-1.004 2 2 0 0 1 .024-1.188c.129-.385.371-.725.698-.977a2.16 2.16 0 0 1 1.139-.441l7.62-.596 2.94-6.892c.159-.375.43-.697.778-.923a2.16 2.16 0 0 1 1.177-.346c.419 0 .829.12 1.177.346s.619.548.778.923l2.938 6.892 7.621.596c.417.034.814.187 1.142.439s.572.592.701.977c.129.386.138.8.025 1.19-.112.39-.341.74-.658 1.005zM198.996 14.37l-5.812 4.86 1.77 7.265c.098.395.073.809-.072 1.19s-.403.71-.741.949a2.17 2.17 0 0 1-2.351.091l-6.523-3.889-6.526 3.89a2.17 2.17 0 0 1-2.347-.095 2.06 2.06 0 0 1-.741-.949 2 2 0 0 1-.073-1.186l1.777-7.267-5.812-4.858a2.06 2.06 0 0 1-.657-1.004 2 2 0 0 1 .024-1.188c.129-.385.371-.725.698-.977a2.17 2.17 0 0 1 1.139-.441l7.621-.596 2.939-6.892c.159-.375.43-.697.778-.923a2.16 2.16 0 0 1 1.177-.346c.419 0 .829.12 1.177.346s.619.548.778.923l2.938 6.892 7.621.596c.417.034.814.187 1.142.439s.572.592.701.977c.129.386.138.8.025 1.19-.112.39-.341.74-.658 1.005z" style="fill:#f8b372;fill:color(display-p3 .9725 .701 .4471);fill-opacity:1"/></svg>