<svg width="19" height="19" viewBox="0 0 19 19" fill="none" xmlns="http://www.w3.org/2000/svg">
<path d="M18.5119 11.5705V17.7412C18.5119 17.9457 18.4306 18.1419 18.286 18.2866C18.1413 18.4312 17.9451 18.5125 17.7406 18.5125H0.771329C0.56676 18.5125 0.370569 18.4312 0.225917 18.2866C0.081265 18.1419 0 17.9457 0 17.7412V11.5705C0 11.366 0.081265 11.1698 0.225917 11.0251C0.370569 10.8805 0.56676 10.7992 0.771329 10.7992C0.975898 10.7992 1.17209 10.8805 1.31674 11.0251C1.46139 11.1698 1.54266 11.366 1.54266 11.5705V16.9698H16.9692V11.5705C16.9692 11.366 17.0505 11.1698 17.1952 11.0251C17.3398 10.8805 17.536 10.7992 17.7406 10.7992C17.9451 10.7992 18.1413 10.8805 18.286 11.0251C18.4306 11.1698 18.5119 11.366 18.5119 11.5705ZM5.94502 5.1743L8.48462 2.63373V11.5705C8.48462 11.7751 8.56589 11.9713 8.71054 12.116C8.85519 12.2606 9.05138 12.3419 9.25595 12.3419C9.46052 12.3419 9.65671 12.2606 9.80136 12.116C9.94601 11.9713 10.0273 11.7751 10.0273 11.5705V2.63373L12.5669 5.1743C12.7116 5.31903 12.9079 5.40034 13.1126 5.40034C13.3173 5.40034 13.5136 5.31903 13.6583 5.1743C13.803 5.02956 13.8844 4.83326 13.8844 4.62858C13.8844 4.4239 13.803 4.2276 13.6583 4.08287L9.80167 0.22622C9.73003 0.154505 9.64496 0.0976125 9.55132 0.0587959C9.45768 0.0199793 9.35731 0 9.25595 0C9.15458 0 9.05421 0.0199793 8.96058 0.0587959C8.86694 0.0976125 8.78187 0.154505 8.71023 0.22622L4.85359 4.08287C4.70886 4.2276 4.62755 4.4239 4.62755 4.62858C4.62755 4.83326 4.70886 5.02956 4.85359 5.1743C4.99832 5.31903 5.19462 5.40034 5.3993 5.40034C5.60399 5.40034 5.80029 5.31903 5.94502 5.1743Z" fill="#8A8A8A" style="fill:#8A8A8A;fill:color(display-p3 0.5427 0.5427 0.5427);fill-opacity:1;"/>
</svg>
